<?xml version="1.0" encoding="utf-8"?>
<!-- Generator: Adobe Illustrator 25.0.1, SVG Export Plug-In . SVG Version: 6.00 Build 0)  -->
<svg version="1.1" id="Layer_1" xmlns="http://www.w3.org/2000/svg" xmlns:xlink="http://www.w3.org/1999/xlink" x="0px" y="0px"
	 viewBox="0 0 102 207" style="enable-background:new 0 0 102 207;" xml:space="preserve">
<style type="text/css">
	.st0{fill:#64228C;}
</style>
<polygon class="st0" points="87.61235,174.632339 80.999016,174.632339 88.24437,195.55217 88.24437,206.671188 
	94.493523,206.671188 94.493523,195.55217 101.738876,174.632339 95.125542,174.632339 91.368942,185.478928 "/>
<path class="st0" d="M24.610374,206.671188v-32.038849h9.815147c4.041199,0,7.317238,3.276047,7.317238,7.317245v3.987579H35.49361
	v-3.987579c0-0.58989-0.478199-1.068085-1.068089-1.068085h-3.565998v25.789688H24.610374z"/>
<path class="st0" d="M43.673851,199.356934c0,4.077408,3.254654,7.31398,7.317238,7.31398h2.497913
	c4.160557,0,7.317234-3.726044,7.317234-7.31398v-3.985809h-6.249149v3.985809c0,0.594254-0.428581,1.067612-1.068085,1.067612
	h-2.497913c-0.670544,0-1.068085-0.517944-1.068085-1.067612v-17.396637c0-0.558212,0.309032-1.067612,1.068085-1.067612h2.497913
	c0.572632,0,1.068085,0.357819,1.068085,1.067612v3.985809h6.249149v-3.985809c0-3.773331-2.777729-7.31398-7.317234-7.31398
	h-2.497913c-4.362583,0-7.317238,3.240662-7.317238,7.31398V199.356934z"/>
<path class="st0" d="M78.481956,194.309067c1.63739-1.390259,2.581238-3.42981,2.581238-5.57782v-6.781677
	c0-4.041199-3.276062-7.317261-7.3172-7.317261H62.737324v32.038879h6.249149v-10.596924
	c4.065735,0,7.758667,4.604797,7.758667,10.596924h6.239319C83.175804,202.117477,81.557091,197.67308,78.481956,194.309067z
	 M74.814049,188.731247c0,0.589905-0.47821,1.068115-1.068054,1.068115h-4.759521v-8.917908h4.759521
	c0.589844,0,1.068054,0.47821,1.068054,1.068115V188.731247z"/>
<path class="st0" d="M0.278947,206.671188v-5.95079h13.792138c1.396085,0,2.527834-1.131744,2.527834-2.527832
	c0-0.949066-0.531601-1.818161-1.376515-2.250427l-10.204109-5.220413c-2.902607-1.425125-4.741876-4.377182-4.741876-7.610764
	c0-4.682617,3.796005-8.478622,8.478614-8.478622h10.116884v5.95079H8.757562c-1.396084,0-2.527834,1.131744-2.527834,2.527832
	c0,0.949066,0.531601,1.818161,1.376516,2.250427l10.326481,5.28302c2.833929,1.449844,4.616976,4.364899,4.616976,7.548157
	c0,4.682617-3.796005,8.478622-8.478615,8.478622H0.278947z"/>
<path class="st0" d="M0.261124,116.610367H64.72448c4.088341,0,7.402596-3.314255,7.402596-7.402596
	c0-2.981003-1.788078-5.671158-4.536598-6.825287L25.133551,84.554428C13.490629,79.665459,5.916207,68.269783,5.916207,55.642052
	c0-17.318501,14.039418-31.35792,31.357918-31.35792h64.463356L50.999302,0.328814L0.261124,24.284132V116.610367z"/>
<path class="st0" d="M0.261124,140.565689l50.738178,23.955322l50.738178-23.955322V48.239449H37.274124
	c-4.088341,0-7.402599,3.314259-7.402599,7.402603c0,2.981003,1.788078,5.671154,4.536598,6.825287l42.456928,17.828056
	c11.642921,4.888969,19.217346,16.284645,19.217346,28.912376c0,17.318497-14.039421,31.357918-31.357918,31.357918H0.261124z"/>
</svg>
