<?xml version="1.0" encoding="utf-8"?>
<!-- Generator: Adobe Illustrator 25.0.1, SVG Export Plug-In . SVG Version: 6.00 Build 0)  -->
<svg version="1.1" id="Layer_1" xmlns="http://www.w3.org/2000/svg" xmlns:xlink="http://www.w3.org/1999/xlink" x="0px" y="0px"
	 viewBox="0 0 128 64" style="enable-background:new 0 0 128 64;" xml:space="preserve">
<style type="text/css">
	.st0{fill:#64228C;}
</style>
<g>
	<g id="LINE_29_">
		<path class="st0" d="M41.650494,54.526146V18.730391h10.966087c4.515076,0,8.175266,3.660191,8.175266,8.175264v4.455173
			h-6.981934v-4.455173c0-0.659058-0.534271-1.193331-1.193333-1.193331h-3.984154v28.813822H41.650494z"/>
	</g>
	<g id="LINE_28_">
		<polygon class="st0" points="112.040169,18.730391 104.651344,18.730391 112.7463,42.103306 112.7463,54.526146 
			119.728241,54.526146 119.728241,42.103306 127.823196,18.730391 120.434372,18.730391 116.237274,30.84886 		"/>
	</g>
	<g>
		<g id="LINE_27_">
			<path class="st0" d="M0.176805,45.244865h24.975779c1.583994,0,2.868074-1.284081,2.868074-2.868073
				c0-1.154964-0.692776-2.197243-1.757666-2.644402l-16.449577-6.90733c-4.510952-1.89419-7.445597-6.309345-7.445597-11.201853
				c0-6.709907,5.439454-12.14936,12.149359-12.14936h24.97578L19.834881,0.192564L0.176805,9.473849V45.244865z"/>
		</g>
		<g id="LINE_26_">
			<path class="st0" d="M0.176805,54.52615l19.658075,9.281284l19.658077-9.281284V18.755133h-24.97578
				c-1.583994,0-2.868074,1.284082-2.868074,2.868076c0,1.154964,0.692776,2.197241,1.757667,2.644398l16.449577,6.90733
				c4.51095,1.89419,7.445597,6.309347,7.445597,11.201857c0,6.709904-5.439455,12.149357-12.149361,12.149357H0.176805z"/>
		</g>
	</g>
	<g id="LWPOLYLINE_14_">
		<path class="st0" d="M62.949383,46.354218c0,4.555531,3.636303,8.171635,8.175266,8.171635h2.790825
			c4.64843,0,8.175262-4.162975,8.175262-8.171635v-4.453194h-6.981934v4.453194c0,0.663933-0.478836,1.192802-1.193329,1.192802
			h-2.790825c-0.749176,0-1.193329-0.578678-1.193329-1.192802V26.917633c0-0.623678,0.345268-1.192801,1.193329-1.192801h2.790825
			c0.639778,0,1.193329,0.399769,1.193329,1.192801v4.453192h6.981934v-4.453192c0-4.215796-3.103455-8.171633-8.175262-8.171633
			h-2.790825c-4.874146,0-8.175266,3.620659-8.175266,8.171633V46.354218z"/>
	</g>
	<path class="st0" d="M101.839134,40.714428c1.829391-1.55328,2.883919-3.831993,2.883919-6.23188V26.90564
		c0-4.515076-3.660217-8.175293-8.175224-8.175293H84.248268V54.52615h6.981926V42.686619
		c4.542488,0,8.668465,5.14476,8.668465,11.839531h6.970947C107.083389,49.438465,105.274864,44.472912,101.839134,40.714428z
		 M97.741119,34.482548c0,0.659077-0.534286,1.193363-1.193291,1.193363h-5.317635v-9.963634h5.317635
		c0.659004,0,1.193291,0.534286,1.193291,1.193363V34.482548z"/>
</g>
</svg>
