<?xml version="1.0" encoding="utf-8"?>
<!-- Generator: Adobe Illustrator 25.0.1, SVG Export Plug-In . SVG Version: 6.00 Build 0)  -->
<svg version="1.1" id="srcry_x5F_logo" xmlns="http://www.w3.org/2000/svg" xmlns:xlink="http://www.w3.org/1999/xlink" x="0px"
	 y="0px" viewBox="0 0 1389.599976 558" style="enable-background:new 0 0 1389.599976 558;" xml:space="preserve">
<style type="text/css">
	.st0{fill:#70798C;}
</style>
<path id="logo" class="st0" d="M256.700012,250.300003v39.900009c0,4.600006,3.700012,8.200012,8.200012,8.200012h86.700012
	c4.600006,0,8.200012-3.700012,8.200012-8.200012V258l-136-111.899994V98.5c0-22.699997,18.399994-41.099998,41.100006-41.099998
	h86.699982c22.700012,0,41.100006,18.400002,41.100006,41.099998v39.899994h-32.799988V98.5
	c0-4.599998-3.700012-8.199997-8.200012-8.199997h-86.699982c-4.600006,0-8.200012,3.699997-8.200012,8.199997v32.199997
	l136,111.900009v47.600006c0,22.700012-18.399994,41.100006-41.100006,41.100006h-86.699982
	c-22.699997,0-41.100006-18.399994-41.100006-41.100006v-39.899994h32.799957V250.300003z M574.799988,98.5
	c0-22.699997-18.400024-41.099998-41.099976-41.099998c-5,0-10,0.900002-14.799988,2.700001L458.200012,83.5v-21h-32.799988
	v268.700012h32.799988V118.699997l72.5-27.900002c0.900024-0.400002,2-0.599998,3-0.599998
	c4.599976,0,8.200012,3.699997,8.200012,8.199997V142.5h32.799988v-44H574.799988z M776.400024,98.5
	c0-22.699997-18.400024-41.099998-41.099976-41.099998h-86.700012c-22.700012,0-41.099976,18.400002-41.099976,41.099998v191.700012
	c0,22.700012,18.400024,41.100006,41.099976,41.100006h86.700012c22.700012,0,41.099976-18.399994,41.099976-41.100006v-55.399994
	h-32.799988v55.399994c0,4.600006-3.700012,8.200012-8.200012,8.200012h-86.700012c-4.599976,0-8.200012-3.700012-8.200012-8.200012
	V98.5c0-4.599998,3.700012-8.199997,8.200012-8.199997h86.700012C740,90.300003,743.600037,94,743.600037,98.5v55.399994h32.799988
	V98.5z M1387.699951,236.699997L1218.900024,469H860.099976l-52.299988-43v-13.600006h48.299988v29.799988h35.799988v-32.399994
	c0-18.299988-14.799988-33.100006-33.099976-33.100006h-53.599976c-4.200012,0-8.400024,0.799988-12.400024,2.399994V9.1H173.199997
	L7.8,236.699997l165.300003,227.599991h324.600006v4.799988h-327L1.9,236.699997L170.699997,4.3h1048.199951L1387.699951,236.699997
	z M961.599976,331.299988l-64.700012-100.5l24.599976-2.399994c21-2.100006,37-19.699997,37-40.899994v-89
	c0-22.699997-18.400024-41.099998-41.099976-41.099998H809.200012v273.899994H842v-241h75.400024
	c4.599976,0,8.200012,3.699997,8.200012,8.199997v89c0,4.199997-3.200012,7.800003-7.400024,8.199997l-51.299988,5.100006
	L859.5,233.499985l63,97.800003H961.599976z M1165.800049,57.299999h-35.400024l-50.300049,125.300003l-50.300049-125.300003
	l-35.299988,0.099998l69.200012,172.399994v101.5H1096.5V229.800003L1165.800049,57.299999z M584.400024,384.399994h-53.599976
	c-14,0-25.399994,11.399994-25.399994,25.399994v118.5c0,14,11.399994,25.400024,25.399994,25.400024h53.599976
	c14,0,25.400024-11.400024,25.400024-25.400024v-34.200012h-20.299988v34.200012c0,2.799988-2.299988,5.099976-5.099976,5.099976
	H530.80011c-2.799988,0-5.099976-2.299988-5.099976-5.099976v-118.5c0-2.799988,2.299988-5.100006,5.099976-5.100006h53.599976
	c2.799988,0,5.099976,2.299988,5.099976,5.100006V444h20.299988v-34.200012
	C609.799988,395.799988,598.5,384.399994,584.400024,384.399994z M668,384.399994c-14,0-25.400024,11.399994-25.400024,25.399994
	v29.399994l84,69.199982v19.900024c0,2.799988-2.299988,5.099976-5.099976,5.099976H668
	c-2.799988,0-5.099976-2.299988-5.099976-5.099976v-24.700012h-20.299988v24.700012c0,14,11.400024,25.400024,25.400024,25.400024
	h53.599976c14,0,25.400024-11.400024,25.400024-25.400024v-29.399994l-84-69.199982v-19.899994
	c0-2.799988,2.299988-5.100006,5.099976-5.100006h53.599976c2.799988,0,5.099976,2.299988,5.099976,5.100006v24.700012H747
	v-24.700012c0-14-11.400024-25.399994-25.400024-25.399994H668V384.399994z M884.099976,409.799988
	c0-14-11.400024-25.399994-25.400024-25.399994h-53.599976c-14,0-25.400024,11.399994-25.400024,25.399994v29.399994l84,69.199982
	v19.900024c0,2.799988-2.299988,5.099976-5.099976,5.099976H805c-2.799988,0-5.099976-2.299988-5.099976-5.099976v-24.700012
	h-20.299988v24.700012c0,14,11.400024,25.400024,25.400024,25.400024h53.599976c14,0,25.400024-11.400024,25.400024-25.400024
	v-29.399994l-84-69.199982v-19.899994c0-2.799988,2.299988-5.100006,5.099976-5.100006h53.599976
	c2.799988,0,5.099976,2.299988,5.099976,5.100006v24.700012h20.299988V409.799988z"/>
<g>
	<path class="st0" d="M907.200012,533.099976V536.5h-6.599976v17.200012h-4.099976V536.5H890v-3.400024H907.200012z
		 M929.5,553.700012l-0.799988-12.099976c-0.099976-1.599976-0.099976-3.599976-0.200012-5.799988h-0.200012
		c-0.5,1.799988-1.099976,4.200012-1.700012,6.099976l-3.700012,11.400024h-4.200012l-3.700012-11.700012
		c-0.400024-1.599976-1-4-1.400024-5.799988h-0.200012c0,1.900024-0.099976,3.900024-0.200012,5.799988l-0.799988,12.099976
		h-3.900024l1.5-20.599976h6.099976l3.599976,10.099976c0.5,1.599976,0.799988,3.099976,1.400024,5.200012h0.099976
		c0.5-1.900024,1-3.599976,1.400024-5.099976l3.599976-10.099976h5.900024l1.599976,20.599976H929.5V553.700012z"/>
</g>
</svg>
