<?xml version="1.0" encoding="utf-8"?>
<!-- Generator: Adobe Illustrator 25.0.1, SVG Export Plug-In . SVG Version: 6.00 Build 0)  -->
<svg version="1.1" id="_x30_" xmlns="http://www.w3.org/2000/svg" xmlns:xlink="http://www.w3.org/1999/xlink" x="0px" y="0px"
	 viewBox="0 0 946.8 504" style="enable-background:new 0 0 946.8 504;" xml:space="preserve">
<style type="text/css">
	
		.st0{display:none;fill:none;stroke:#000000;stroke-width:0.7087;stroke-linecap:round;stroke-linejoin:round;stroke-miterlimit:10;}
	.st1{fill:#70798C;}
</style>
<path class="st0" d="M276.3,442v-4.8H-48.2l-165.3-227.6L-48.2-17.9h619.6V352c3.9-1.6,8.1-2.4,12.4-2.4h53.6
	c18.3,0,33.1,14.8,33.1,33.1v32.4h-35.8v-29.8h-48.3V399l52.3,43h358.8l168.8-232.3L997.5-22.7H-50.7l-168.8,232.3L-50.7,442H276.3z
	"/>
<path class="st1" d="M35.3,196.9v39.9c0,4.6,3.7,8.2,8.2,8.2h86.7c4.6,0,8.2-3.7,8.2-8.2v-32.2L2.4,92.7V45.1
	C2.4,22.4,20.8,4,43.5,4h86.7c22.7,0,41.1,18.4,41.1,41.1V85h-32.8V45.1c0-4.6-3.7-8.2-8.2-8.2H43.5c-4.6,0-8.2,3.7-8.2,8.2v32.2
	l136,111.9v47.6c0,22.7-18.4,41.1-41.1,41.1H43.5c-22.7,0-41.1-18.4-41.1-41.1v-39.9L35.3,196.9L35.3,196.9z M353.4,45.1
	C353.4,22.4,335,4,312.3,4c-5,0-10,0.9-14.8,2.7l-60.7,23.4v-21H204v268.7h32.8V65.3l72.5-27.9c0.9-0.4,2-0.6,3-0.6
	c4.6,0,8.2,3.7,8.2,8.2v44.1h32.8v-44H353.4z M555,45.1C555,22.4,536.6,4,513.9,4h-86.7c-22.7,0-41.1,18.4-41.1,41.1v191.7
	c0,22.7,18.4,41.1,41.1,41.1h86.7c22.7,0,41.1-18.4,41.1-41.1v-55.4h-32.8v55.4c0,4.6-3.7,8.2-8.2,8.2h-86.7c-4.6,0-8.2-3.7-8.2-8.2
	V45.1c0-4.6,3.7-8.2,8.2-8.2H514c4.6,0,8.2,3.7,8.2,8.2v55.4H555V45.1z M675.5,177.3l24.6-2.4c21-2.1,37-19.7,37-40.9V45
	c0-22.7-18.4-41.1-41.1-41.1H587.8v273.9h32.8v-241H696c4.6,0,8.2,3.7,8.2,8.2v89c0,4.2-3.2,7.8-7.4,8.2l-51.3,5.1l-7.4,32.7
	l63,97.8h39L675.5,177.3z M842.3,277.8h32.8V176.4L944.4,3.8H909l-50.3,125.3L808.4,3.8L773.1,4l69.2,172.4V277.8z M363,330.9h-53.6
	c-14,0-25.4,11.4-25.4,25.4v118.5c0,14,11.4,25.4,25.4,25.4H363c14,0,25.4-11.4,25.4-25.4v-34.2h-20.3v34.2c0,2.8-2.3,5.1-5.1,5.1
	h-53.6c-2.8,0-5.1-2.3-5.1-5.1V356.3c0-2.8,2.3-5.1,5.1-5.1H363c2.8,0,5.1,2.3,5.1,5.1v34.2h20.3v-34.2
	C388.4,342.3,377.1,330.9,363,330.9z M446.6,330.9c-14,0-25.4,11.4-25.4,25.4v29.4l84,69.2v19.9c0,2.8-2.3,5.1-5.1,5.1h-53.6
	c-2.8,0-5.1-2.3-5.1-5.1v-24.7h-20.3v24.7c0,14,11.4,25.4,25.4,25.4h53.6c14,0,25.4-11.4,25.4-25.4v-29.4l-84-69.2v-19.9
	c0-2.8,2.3-5.1,5.1-5.1h53.6c2.8,0,5.1,2.3,5.1,5.1V381h20.3v-24.7c0-14-11.4-25.4-25.4-25.4H446.6z M662.7,356.3
	c0-14-11.4-25.4-25.4-25.4h-53.6c-14,0-25.4,11.4-25.4,25.4v29.4l84,69.2v19.9c0,2.8-2.3,5.1-5.1,5.1h-53.6c-2.8,0-5.1-2.3-5.1-5.1
	v-24.7h-20.3v24.7c0,14,11.4,25.4,25.4,25.4h53.6c14,0,25.4-11.4,25.4-25.4v-29.4l-84-69.2v-19.9c0-2.8,2.3-5.1,5.1-5.1h53.6
	c2.8,0,5.1,2.3,5.1,5.1V381h20.3V356.3z"/>
<g>
	<path class="st1" d="M691.5,479.6v3.4h-6.6v17.2h-4.1V483h-6.6v-3.4H691.5z M713.7,500.2l-0.8-12.1c-0.1-1.6-0.1-3.6-0.2-5.8h-0.2
		c-0.5,1.8-1.1,4.2-1.7,6.1l-3.7,11.4h-4.2l-3.7-11.7c-0.4-1.6-1-4-1.4-5.8h-0.2c0,1.9-0.1,3.9-0.2,5.8l-0.8,12.1h-3.9l1.5-20.6h6.1
		l3.6,10.1c0.5,1.6,0.8,3.1,1.4,5.2h0.1c0.5-1.9,1-3.6,1.4-5.1l3.6-10.1h5.9l1.6,20.6h-4.2V500.2z"/>
</g>
</svg>
